<svg data-v-423bf9ae="" xmlns="http://www.w3.org/2000/svg" viewBox="0 0 687 99" class="iconLeft"><!----><!----><!----><g data-v-423bf9ae="" id="a98e1159-24ad-49de-853d-436b6a063c1f" fill="white" transform="matrix(5.741626375070499,0,0,5.741626375070499,118.91601427924121,-8.205671503436974)"><path d="M3.36 5.08C2.21 5.08 1.47 5.24 0.98 5.47C1.19 6.02 1.23 6.79 1.23 7.18L1.23 14.35C1.23 14.88 1.64 15.22 2.18 15.22C2.65 15.22 3.00 14.98 3.14 14.84C2.93 14.34 2.90 13.62 2.90 13.23L2.90 11.21L3.23 11.21C6.02 11.21 7.55 10.07 7.55 7.97C7.55 5.94 6.09 5.08 3.36 5.08ZM3.19 10.61L2.90 10.61L2.90 5.73C3.01 5.70 3.18 5.70 3.37 5.70C5.11 5.70 5.73 6.62 5.73 8.08C5.73 9.62 5.05 10.61 3.19 10.61ZM14.21 13.06C13.90 13.72 13.19 14.17 12.17 14.17C10.98 14.17 10.16 13.57 10.04 11.79C10.53 11.84 10.99 11.86 11.45 11.86C13.30 11.86 14.52 11.12 14.52 9.73C14.52 8.34 13.31 7.64 11.75 7.64C9.48 7.64 8.26 9.09 8.26 11.42C8.26 13.86 9.60 15.22 11.72 15.22C12.99 15.22 13.97 14.73 14.32 13.83C14.53 13.34 14.39 13.15 14.21 13.06ZM11.69 8.23C12.22 8.23 12.75 8.48 12.75 9.46C12.75 11.03 11.56 11.24 10.57 11.23C10.37 11.23 10.18 11.21 10.01 11.20C10.01 9.32 10.64 8.23 11.69 8.23ZM22.74 13.73C22.64 13.89 22.47 13.92 22.36 13.92C22.06 13.92 21.90 13.69 21.90 13.19L21.91 5.64C21.91 5.08 21.49 4.77 20.97 4.77C20.50 4.77 20.17 5.01 20.02 5.14C20.26 5.94 20.30 6.86 20.30 7.53L20.30 8.57C20.03 7.98 19.42 7.64 18.52 7.64C16.62 7.64 15.55 9.13 15.55 11.70C15.55 13.59 16.17 15.22 18.00 15.22C19.18 15.22 19.98 14.55 20.40 13.31C20.48 14.45 20.92 15.15 21.78 15.15C22.41 15.15 22.90 14.78 22.90 14.28C22.90 14.13 22.85 13.92 22.74 13.73ZM18.49 14.29C17.53 14.29 17.30 13.26 17.30 11.68C17.30 9.63 17.78 8.48 18.90 8.48C20.06 8.48 20.27 9.53 20.27 10.58C20.27 12.49 19.70 14.29 18.49 14.29ZM25.05 6.85C25.58 6.85 26.01 6.41 26.01 5.88C26.01 5.33 25.58 4.90 25.05 4.90C24.50 4.90 24.07 5.33 24.07 5.88C24.07 6.41 24.50 6.85 25.05 6.85ZM25.93 13.13L25.90 8.48C25.90 7.94 25.52 7.63 24.98 7.63C24.53 7.63 24.21 7.87 24.05 7.99C24.26 8.54 24.30 9.17 24.30 9.70L24.30 14.35C24.30 14.88 24.71 15.22 25.23 15.22C25.69 15.22 26.01 14.98 26.17 14.84C25.96 14.29 25.93 13.68 25.93 13.13ZM34.66 13.73C34.57 13.89 34.40 13.92 34.29 13.92C33.99 13.92 33.82 13.69 33.82 13.19L33.84 5.64C33.84 5.08 33.42 4.77 32.90 4.77C32.42 4.77 32.10 5.01 31.95 5.14C32.19 5.94 32.23 6.86 32.23 7.53L32.23 8.57C31.96 7.98 31.35 7.64 30.45 7.64C28.55 7.64 27.48 9.13 27.48 11.70C27.48 13.59 28.10 15.22 29.93 15.22C31.11 15.22 31.91 14.55 32.33 13.31C32.41 14.45 32.84 15.15 33.71 15.15C34.34 15.15 34.83 14.78 34.83 14.28C34.83 14.13 34.78 13.92 34.66 13.73ZM30.42 14.29C29.46 14.29 29.23 13.26 29.23 11.68C29.23 9.63 29.71 8.48 30.83 8.48C31.99 8.48 32.20 9.53 32.20 10.58C32.20 12.49 31.63 14.29 30.42 14.29ZM38.93 15.22C41.06 15.22 42.31 13.80 42.31 11.44C42.31 9.04 41.06 7.64 38.93 7.64C36.81 7.64 35.57 9.04 35.57 11.44C35.57 13.80 36.81 15.22 38.93 15.22ZM38.93 14.62C37.86 14.62 37.32 13.52 37.32 11.44C37.32 9.32 37.86 8.23 38.93 8.23C40.01 8.23 40.54 9.32 40.54 11.44C40.54 13.52 40.01 14.62 38.93 14.62ZM45.95 15.22C48.29 15.22 49.08 14.10 49.08 13.03C49.08 11.75 47.84 11.20 46.75 10.68C45.84 10.23 45.01 9.87 45.01 9.06C45.01 8.47 45.57 8.23 46.19 8.23C46.87 8.23 47.32 8.54 47.45 9.03C47.54 9.24 47.56 9.53 47.53 9.77C47.68 9.80 47.81 9.81 47.99 9.80C48.57 9.77 48.78 9.39 48.78 9.00C48.78 8.09 47.75 7.63 46.24 7.63C44.80 7.63 43.54 8.19 43.54 9.60C43.54 11.09 44.73 11.62 45.81 12.14C46.70 12.56 47.56 12.87 47.56 13.65C47.56 14.29 46.96 14.59 46.16 14.59C45.14 14.59 44.62 14.01 44.53 13.36C44.48 13.12 44.48 12.89 44.53 12.66C43.58 12.50 43.29 13.08 43.29 13.57C43.29 14.50 44.13 15.22 45.95 15.22ZM59.71 13.13L59.71 10.49C59.71 8.60 59.00 7.64 57.46 7.64C56.28 7.64 55.48 8.25 55.10 9.32C55.10 8.19 54.60 7.64 53.79 7.64C53.13 7.64 52.75 8.01 52.75 8.51C52.75 8.71 52.81 8.88 52.92 9.06C53.02 8.90 53.19 8.88 53.30 8.88C53.54 8.88 53.65 9.07 53.66 9.60L53.66 14.27C53.66 14.85 54.07 15.22 54.63 15.22C55.08 15.22 55.41 14.99 55.57 14.85C55.29 14.18 55.29 13.68 55.29 11.70C55.29 9.48 56.04 8.48 56.92 8.48C57.83 8.48 58.07 9.30 58.09 10.72L58.09 14.35C58.09 14.88 58.49 15.22 59.02 15.22C59.43 15.22 59.74 15.05 59.98 14.84C59.75 14.29 59.72 13.58 59.71 13.13ZM68.24 13.72C68.14 13.87 67.94 13.93 67.83 13.93C67.51 13.93 67.35 13.69 67.35 13.19L67.35 10.67C67.35 8.53 66.43 7.64 64.40 7.64C62.64 7.64 61.50 8.23 61.50 9.35C61.50 10.05 61.99 10.63 62.80 10.63C63.14 10.63 63.50 10.53 63.70 10.32C63.29 10.11 63.17 9.67 63.17 9.30C63.17 8.50 63.70 8.22 64.29 8.22C65.32 8.22 65.67 9.02 65.67 10.57L65.67 10.92C65.09 10.92 64.34 10.98 63.59 11.19C62.36 11.54 61.18 12.25 61.18 13.52C61.18 14.57 61.92 15.16 62.99 15.16C64.27 15.16 65.25 14.36 65.77 13.22C65.83 14.64 66.33 15.16 67.20 15.16C67.93 15.16 68.40 14.76 68.40 14.25C68.40 14.10 68.36 13.89 68.24 13.72ZM63.83 14.08C63.21 14.14 62.97 13.65 62.97 13.13C62.97 12.52 63.36 12.04 63.94 11.77C64.43 11.54 65.14 11.47 65.72 11.48C65.72 12.89 64.67 14.03 63.83 14.08ZM82.78 13.13L82.78 10.49C82.78 8.61 82.10 7.64 80.65 7.64C79.53 7.64 78.78 8.30 78.43 9.34C78.19 8.23 77.57 7.64 76.43 7.64C75.28 7.64 74.55 8.30 74.20 9.37C74.17 8.20 73.65 7.64 72.84 7.64C72.20 7.64 71.78 8.02 71.78 8.57C71.78 8.75 71.83 8.92 71.95 9.10C72.03 8.95 72.21 8.88 72.35 8.88C72.62 8.88 72.77 9.11 72.77 9.62L72.79 14.27C72.79 14.85 73.19 15.22 73.72 15.22C74.24 15.22 74.52 14.99 74.66 14.85C74.40 14.18 74.40 13.68 74.40 11.75C74.40 9.44 75.10 8.43 75.89 8.43C76.76 8.43 76.97 9.25 76.97 10.72L76.97 14.35C76.97 14.88 77.36 15.22 77.88 15.22C78.32 15.22 78.58 15.04 78.81 14.84C78.60 14.29 78.55 13.58 78.55 13.13L78.55 11.61C78.58 9.42 79.37 8.43 80.14 8.43C81.02 8.43 81.14 9.44 81.14 10.72L81.14 14.35C81.14 14.88 81.54 15.22 82.08 15.22C82.52 15.22 82.81 15.04 83.02 14.84C82.82 14.29 82.78 13.58 82.78 13.13ZM85.75 6.83C85.88 6.54 86.11 6.27 86.59 6.27C87.22 6.27 87.67 6.90 88.34 6.90C89.01 6.90 89.42 6.33 89.53 5.52C89.43 5.43 89.33 5.40 89.18 5.40C89.05 5.71 88.90 5.99 88.45 5.99C87.79 5.99 87.36 5.33 86.66 5.33C86.09 5.33 85.48 5.70 85.39 6.71C85.48 6.79 85.65 6.85 85.75 6.83ZM91.29 13.72C91.20 13.87 91.00 13.93 90.89 13.93C90.57 13.93 90.41 13.69 90.41 13.19L90.41 10.67C90.41 8.53 89.49 7.64 87.46 7.64C85.69 7.64 84.56 8.23 84.56 9.35C84.56 10.05 85.05 10.63 85.86 10.63C86.20 10.63 86.56 10.53 86.76 10.32C86.35 10.11 86.23 9.67 86.23 9.30C86.23 8.50 86.76 8.22 87.35 8.22C88.38 8.22 88.73 9.02 88.73 10.57L88.73 10.92C88.14 10.92 87.40 10.98 86.65 11.19C85.41 11.54 84.24 12.25 84.24 13.52C84.24 14.57 84.98 15.16 86.04 15.16C87.33 15.16 88.31 14.36 88.83 13.22C88.89 14.64 89.39 15.16 90.26 15.16C90.99 15.16 91.46 14.76 91.46 14.25C91.46 14.10 91.42 13.89 91.29 13.72ZM86.88 14.08C86.27 14.14 86.03 13.65 86.03 13.13C86.03 12.52 86.42 12.04 87.00 11.77C87.49 11.54 88.20 11.47 88.77 11.48C88.77 12.89 87.72 14.03 86.88 14.08ZM95.45 15.22C97.58 15.22 98.83 13.80 98.83 11.44C98.83 9.04 97.58 7.64 95.45 7.64C93.32 7.64 92.09 9.04 92.09 11.44C92.09 13.80 93.32 15.22 95.45 15.22ZM95.45 14.62C94.37 14.62 93.84 13.52 93.84 11.44C93.84 9.32 94.37 8.23 95.45 8.23C96.53 8.23 97.06 9.32 97.06 11.44C97.06 13.52 96.53 14.62 95.45 14.62Z"></path></g><!----><g data-v-423bf9ae="" id="cd854c87-de99-4426-ac54-1ec63722e685" transform="matrix(1.0454332987467447,0,0,1.0454332987467447,0.7286022594363502,0.8181148042174797)" stroke="none" fill="white"><path d="M98.341 66.867c2.683-6.386 1.653-13.184.115-17.044a2.767 2.767 0 00-2.453-1.74c-4.141-.179-10.915 1.098-16.065 5.756a11.665 11.665 0 00-5.912-1.611c-.327 0-.648.022-.969.049-.282-1.782-.729-3.369-1.234-4.637a2.767 2.767 0 00-2.453-1.74c-5.011-.227-13.863 1.692-19.042 9.141-2.433-5.163-6.709-8.722-10.021-10.494V34.29c0-7.738-4.506-14.795-11.392-18.129V9.686h.143c.764 0 1.384-.619 1.384-1.384V1.384A1.386 1.386 0 0029.057 0H11.069c-.764 0-1.384.619-1.384 1.384v6.918c0 .765.62 1.384 1.384 1.384h.323v6.475C4.506 19.494 0 26.551 0 34.29v57.031a2.769 2.769 0 002.768 2.768h89.286a2.767 2.767 0 002.705-2.182l4.803-22.139a2.768 2.768 0 00-.551-2.324 2.767 2.767 0 00-.67-.577zM70.4 58.937a6.172 6.172 0 012.907-1.13c.236-.027.475-.045.718-.045.812 0 1.585.16 2.296.444a6.245 6.245 0 012.272 1.565 6.206 6.206 0 011.548 3.073c.069.371.11.752.11 1.144 0 .86-.176 1.68-.492 2.426H68.29a6.119 6.119 0 01-.226-.63 6.194 6.194 0 01-.267-1.796 6.223 6.223 0 012.603-5.051zm-18.201 5.919C54.235 53.991 63.236 51.898 67.23 51.51c.173.706.346 1.587.458 2.586-3.257 2.094-5.425 5.742-5.425 9.893 0 .832.09 1.643.255 2.426h-4.239l5.761-9.432a1.385 1.385 0 00-2.362-1.443l-6.643 10.875H52.31l-.239-.17c.058-.47.101-.933.128-1.389zm-14.66-13.035c.473-.65.935-1.207 1.339-1.656.427.285.912.634 1.428 1.047 3.173 2.539 7.468 7.515 6.149 15.203h-4.241l-1.908-9.743-.058-.294a1.384 1.384 0 10-2.716.533l.007.035 1.854 9.469H35.006a17.517 17.517 0 01-.234-.729 14.338 14.338 0 01-.542-5.593c.097-.971.285-1.893.542-2.762.145-.488.307-.962.487-1.416a18.81 18.81 0 012.28-4.094zm-23.02 14.693a2.76 2.76 0 00-1.453.93 2.77 2.77 0 00-.55 2.324l4.075 18.785H5.535V34.29c0-6.09 3.851-11.597 9.58-13.706a2.767 2.767 0 001.812-2.597V9.686h6.452v8.302c0 1.159.724 2.197 1.812 2.597 5.73 2.108 9.581 7.616 9.581 13.706v12.125a24.776 24.776 0 00-3.886 5.7 11.671 11.671 0 00-5.288-1.271c-6.485 0-11.761 5.275-11.761 11.76a11.653 11.653 0 00.682 3.909zm14.711-.099h-8.546a6.189 6.189 0 01-1.313-3.811 6.234 6.234 0 016.227-6.227 6.19 6.19 0 013.448 1.046 19.928 19.928 0 00.184 8.992zm63.683 7.89l-3.091 14.248H22.254l-3.569-16.455-.032-.148h74.771l-.511 2.355zm-.527-7.89h-6.854a11.676 11.676 0 00-1.585-8.715c3.399-2.925 7.542-3.775 9.919-4.006.659 2.703 1.336 7.931-1.48 12.721z"></path></g><!----></svg>